<?xml version="1.0" standalone="no"?>
<svg xmlns:xlink="http://www.w3.org/1999/xlink" id="wave" style="transform:rotate(0deg); transition: 0.3s" viewBox="0 0 1440 490" version="1.1" xmlns="http://www.w3.org/2000/svg"><defs><linearGradient id="sw-gradient-0" x1="0" x2="0" y1="1" y2="0"><stop stop-color="rgba(108, 99, 255, 1)" offset="0%"/><stop stop-color="rgba(163.737, 11, 255, 1)" offset="100%"/></linearGradient></defs><path style="transform:translate(0, 0px); opacity:1" fill="url(#sw-gradient-0)" d="M0,392L80,383.8C160,376,320,359,480,310.3C640,261,800,180,960,138.8C1120,98,1280,98,1440,98C1600,98,1760,98,1920,106.2C2080,114,2240,131,2400,122.5C2560,114,2720,82,2880,130.7C3040,180,3200,310,3360,334.8C3520,359,3680,278,3840,236.8C4000,196,4160,196,4320,187.8C4480,180,4640,163,4800,147C4960,131,5120,114,5280,163.3C5440,212,5600,327,5760,343C5920,359,6080,278,6240,245C6400,212,6560,229,6720,204.2C6880,180,7040,114,7200,114.3C7360,114,7520,180,7680,179.7C7840,180,8000,114,8160,130.7C8320,147,8480,245,8640,253.2C8800,261,8960,180,9120,171.5C9280,163,9440,229,9600,220.5C9760,212,9920,131,10080,122.5C10240,114,10400,180,10560,187.8C10720,196,10880,147,11040,155.2C11200,163,11360,229,11440,261.3L11520,294L11520,490L11440,490C11360,490,11200,490,11040,490C10880,490,10720,490,10560,490C10400,490,10240,490,10080,490C9920,490,9760,490,9600,490C9440,490,9280,490,9120,490C8960,490,8800,490,8640,490C8480,490,8320,490,8160,490C8000,490,7840,490,7680,490C7520,490,7360,490,7200,490C7040,490,6880,490,6720,490C6560,490,6400,490,6240,490C6080,490,5920,490,5760,490C5600,490,5440,490,5280,490C5120,490,4960,490,4800,490C4640,490,4480,490,4320,490C4160,490,4000,490,3840,490C3680,490,3520,490,3360,490C3200,490,3040,490,2880,490C2720,490,2560,490,2400,490C2240,490,2080,490,1920,490C1760,490,1600,490,1440,490C1280,490,1120,490,960,490C800,490,640,490,480,490C320,490,160,490,80,490L0,490Z"/></svg>