<?xml version="1.0" standalone="no"?>
<!DOCTYPE svg PUBLIC "-//W3C//DTD SVG 20010904//EN"
 "http://www.w3.org/TR/2001/REC-SVG-20010904/DTD/svg10.dtd">
<svg version="1.0" xmlns="http://www.w3.org/2000/svg"
 width="700.000000pt" height="700.000000pt" viewBox="0 0 700.000000 700.000000"
 preserveAspectRatio="xMidYMid meet">
<metadata>
Created by potrace 1.11, written by Peter Selinger 2001-2013
</metadata>
<g transform="translate(0.000000,700.000000) scale(0.100000,-0.100000)"
fill="#000000" stroke="none">
<path d="M3298 6995 c-1 -1 -41 -5 -88 -9 -47 -3 -96 -8 -110 -10 -14 -2 -50
-7 -80 -11 -30 -4 -62 -8 -70 -10 -8 -2 -35 -6 -60 -10 -24 -4 -47 -8 -50 -10
-3 -2 -24 -6 -47 -10 -23 -3 -68 -13 -100 -21 -32 -9 -65 -17 -73 -19 -95 -20
-367 -112 -477 -161 -17 -8 -34 -14 -38 -14 -3 0 -73 -33 -154 -74 -137 -68
-295 -159 -401 -229 -54 -37 -276 -203 -300 -226 -9 -9 -50 -45 -90 -81 -418
-372 -747 -859 -947 -1405 -59 -159 -122 -378 -138 -480 -3 -16 -10 -52 -15
-80 -17 -82 -18 -90 -24 -141 -4 -27 -9 -65 -11 -84 -28 -201 -27 -584 1 -830
5 -48 45 -281 58 -335 25 -113 97 -366 116 -410 5 -11 30 -74 56 -140 49 -125
161 -359 207 -432 15 -24 27 -45 27 -48 0 -4 18 -33 40 -65 22 -32 40 -63 40
-69 0 -5 4 -11 8 -13 4 -2 29 -34 55 -73 150 -225 437 -533 662 -711 28 -21
52 -41 55 -44 3 -3 37 -28 75 -56 500 -365 1078 -593 1670 -659 28 -4 64 -8
80 -11 58 -9 471 -12 575 -4 151 12 334 37 460 64 14 3 50 11 80 17 103 21
355 100 495 156 576 228 1084 605 1454 1078 101 130 103 133 158 215 286 426
469 884 553 1380 36 218 44 319 45 565 0 275 -15 451 -56 660 -6 28 -12 61
-15 75 -2 14 -7 31 -10 39 -2 8 -7 30 -10 50 -3 20 -10 44 -15 54 -5 9 -7 17
-5 17 3 0 1 11 -4 25 -5 14 -12 36 -14 48 -9 49 -90 279 -141 401 -163 390
-385 732 -675 1039 -144 153 -271 269 -421 383 -94 71 -303 214 -313 214 -3 0
-29 15 -58 34 -139 88 -441 225 -660 297 -115 39 -349 102 -418 113 -19 3 -46
8 -60 10 -42 8 -232 35 -290 41 -57 7 -526 16 -532 10z"/>
</g>
</svg>
